<?xml version="1.0" encoding="UTF-8"?>
<svg id="Layer_2" data-name="Layer 2" xmlns="http://www.w3.org/2000/svg" viewBox="0 0 363.85 118.79">
  <defs>
    <style>
      .cls-1 {
        fill: #14487e;
      }

      .cls-1, .cls-2, .cls-3 {
        stroke-width: 0px;
      }

      .cls-2 {
        fill: #1172ba;
      }

      .cls-3 {
        <!-- fill: #e3e8f5; -->
        fill: none
      }
    </style>
  </defs>
  <g id="Layer_1-2" data-name="Layer 1">
    <g>
      <path class="cls-3" d="m344.36,32.19h-204.79C135.52,13.8,119.1,0,99.52,0h-58.52C18.39,0,0,18.39,0,41v18.07c0,20.37,14.94,37.32,34.43,40.47-1.98,2.23-2.97,5.1-2.8,8.08.17,2.99,1.5,5.73,3.73,7.72l.68.6c2.07,1.84,4.69,2.84,7.44,2.84.22,0,.44,0,.66-.02,2.99-.17,5.74-1.5,7.72-3.73l13.33-14.96h34.32c16.33,0,30.83-9.64,37.37-24.15h207.47c10.75,0,19.49-8.75,19.49-19.49v-4.74c0-10.75-8.75-19.49-19.49-19.49Z"/>
      <g>
        <g>
          <path class="cls-1" d="m160.79,48.67h-5.49v14.09h-3.81v-14.09h-5.51v-3.21h14.81v3.21Z"/>
          <path class="cls-1" d="m168.7,59.57h3.07c1.48,0,2.1-.69,2.1-2.05v-12.06h3.81v12.73c0,2.65-1.71,4.62-4.92,4.62h-5.07c-3.21,0-4.92-1.98-4.92-4.62v-12.73h3.83v12.06c0,1.36.59,2.05,2.1,2.05Z"/>
          <path class="cls-1" d="m180.61,45.45h3.81v13.99h8.53v3.31h-12.33v-17.3Z"/>
          <path class="cls-1" d="m207.13,48.77h-7.69c-1.29,0-1.58.07-1.58,1.24v.4c0,.62.27.77,1.09.94,0,0,5.02.91,5.91,1.09,2.69.49,3.36,1.56,3.36,3.86v2.15c0,3.09-1.36,4.45-5.56,4.45-3.66,0-8.63-.35-8.63-.35l.02-3.11h8.13c1.68,0,2.2-.3,2.2-1.61v-1.01c0-.49-.12-.91-.84-1.04-.89-.2-4.62-.87-5.24-.96-2.92-.52-4.35-.77-4.35-3.63v-1.51c0-3.09,1.43-4.35,5.61-4.33,3.68,0,7.59.32,7.59.32l-.02,3.11Z"/>
          <path class="cls-1" d="m221.24,58.51h-6.58l-1.29,4.25h-4.23s5.07-15.82,5.34-16.71c.17-.54.25-.59,1.01-.59h4.92c.77,0,.84.05.99.59.3.89,5.36,16.71,5.36,16.71h-4.25l-1.29-4.25Zm-5.71-3.63h4.85l-2-6.35h-.82l-2.03,6.35Z"/>
          <path class="cls-2" d="m246.13,45.45h4.28s-3.16,15.7-3.39,16.83c-.07.4-.3.52-.59.52h-5.69c-.25,0-.54-.1-.62-.47-.12-.74-1.58-11.25-1.58-11.25h-.17s-1.46,10.51-1.58,11.25c-.05.37-.35.47-.59.47h-5.69c-.32,0-.52-.12-.62-.52-.2-1.14-3.39-16.83-3.39-16.83h4.28l2.35,13.6h.52l2.22-13.6h5.19l2.2,13.6h.54l2.32-13.6Z"/>
          <path class="cls-2" d="m252.37,45.45h12.71v3.21h-8.9v3.66h7.69v3.31h-7.69v3.73h8.85v3.39h-12.66v-17.3Z"/>
          <path class="cls-2" d="m267.94,45.45h9.27c3.21,0,4.92,1.75,4.92,4.4v1.01c-.02,1.41-.87,2.3-2.13,2.77,1.41.54,2.45,1.53,2.47,3.04v1.66c0,2.65-1.71,4.42-4.92,4.42h-9.62v-17.3Zm10.53,4.92c0-1.36-.62-1.85-2.1-1.85h-4.62v3.81h4.57c1.46-.02,2.15-.35,2.15-1.41v-.54Zm-6.72,9.29h4.97c1.48,0,2.1-.69,2.1-2.05v-.69c0-1.09-.72-1.51-2.2-1.51h-4.87v4.25Z"/>
          <path class="cls-1" d="m285.36,45.45h9.74c3.21,0,5.19,2.03,5.19,4.67v7.93c0,2.65-1.98,4.7-5.19,4.7h-9.74v-17.3Zm11.12,5.54c0-1.85-.89-2.32-2.4-2.32h-4.92v10.88h4.92c1.51,0,2.4-.47,2.4-2.32v-6.23Z"/>
          <path class="cls-1" d="m303.18,45.45h12.71v3.21h-8.9v3.66h7.69v3.31h-7.69v3.73h8.85v3.39h-12.66v-17.3Z"/>
          <path class="cls-1" d="m329.97,45.45h4.28s-4.75,15.52-5.04,16.73c-.15.49-.37.62-.67.62h-5.41c-.32,0-.52-.12-.67-.62-.32-1.21-5.04-16.73-5.04-16.73h4.25l3.91,13.57h.52l3.88-13.57Z"/>
          <path class="cls-1" d="m348.29,48.77h-7.69c-1.29,0-1.58.07-1.58,1.24v.4c0,.62.27.77,1.09.94,0,0,5.02.91,5.91,1.09,2.69.49,3.36,1.56,3.36,3.86v2.15c0,3.09-1.36,4.45-5.56,4.45-3.66,0-8.63-.35-8.63-.35l.02-3.11h8.13c1.68,0,2.2-.3,2.2-1.61v-1.01c0-.49-.12-.91-.84-1.04-.89-.2-4.62-.87-5.24-.96-2.92-.52-4.35-.77-4.35-3.63v-1.51c0-3.09,1.43-4.35,5.61-4.33,3.68,0,7.59.32,7.59.32l-.02,3.11Z"/>
        </g>
        <path class="cls-1" d="m94.29,41.19h-2.48v2.43h2.48c1.56,0,3.19,1.27,3.19,2.84v7.29c0,1.56-1.63,2.84-3.19,2.84h-22.74v-4.86h-2.43v4.86h-21.93c-1.56,0-3.19-1.27-3.19-2.84v-7.29c0-1.56,1.63-2.84,3.19-2.84h2.48v-2.43h-2.48c-2.9,0-5.62,2.36-5.62,5.27v7.29c0,2.9,2.72,5.27,5.62,5.27h47.11c2.9,0,5.62-2.36,5.62-5.27v-7.29c0-2.9-2.72-5.27-5.62-5.27Z"/>
        <path class="cls-2" d="m98.74,9.58h-56.03c-18.1,0-32.77,14.71-32.77,32.81v15.43c0,18.1,14.67,32.81,32.77,32.81h2.89v-2.43h-2.89c-16.76,0-30.34-13.62-30.34-30.38v-15.43c0-16.76,13.58-30.38,30.34-30.38h56.03c16.76,0,30.34,13.62,30.34,30.38v15.43c0,16.76-13.58,30.38-30.34,30.38h-40.17s-17.02,19.3-17.02,19.3l1.82,1.61,16.3-18.48h39.06c18.1,0,32.77-14.71,32.77-32.81v-15.43c0-18.1-14.67-32.81-32.77-32.81Z"/>
        <path class="cls-1" d="m108.56,38.65c-1.03-4.96-5.24-8.81-10.47-8.81h-54.71c-6.03,0-10.74,5.11-10.74,11.14v2.63h2.43v-2.63c0-4.69,3.62-8.71,8.31-8.71h25.73v13.78h2.43v-13.78h26.54c3.94,0,7.1,2.84,8.02,6.52-1.92.63-3.31,2.44-3.31,4.57,0,2.65,2.16,4.81,4.81,4.81s4.81-2.16,4.81-4.81c0-2.33-1.66-4.27-3.86-4.72Zm-.95,7.1c-1.31,0-2.38-1.07-2.38-2.38s1.07-2.38,2.38-2.38,2.38,1.07,2.38,2.38-1.07,2.38-2.38,2.38Z"/>
        <path class="cls-1" d="m58.17,64.49c-2.18,0-4.02,1.46-4.61,3.44h-4.71v2.43h4.63c.49,2.14,2.4,3.75,4.69,3.75,2.65,0,4.81-2.16,4.81-4.81s-2.16-4.81-4.81-4.81Zm0,7.19c-1.31,0-2.38-1.07-2.38-2.38s1.07-2.38,2.38-2.38,2.38,1.07,2.38,2.38-1.07,2.38-2.38,2.38Z"/>
        <path class="cls-2" d="m41.96,78.47c-10.06,0-18.24-8.33-18.24-18.39v-2.68h8.92v1.82c0,5.11,3.24,9.54,8.1,10.78v-2.54c-3.24-1.18-5.67-4.5-5.67-8.25v-4.26h-11.35v-14.84c0-7.37,4.29-13.71,10.65-16.58.77,1.62,2.43,2.75,4.34,2.75,2.65,0,4.81-2.16,4.81-4.81s-2.16-4.81-4.81-4.81-4.63,1.99-4.8,4.49c-7.29,3.18-12.63,10.47-12.63,18.96v19.96c0,11.4,9.27,20.82,20.67,20.82h4.46v-2.43h-4.46Zm-3.24-59.37c1.31,0,2.38,1.07,2.38,2.38s-1.07,2.38-2.38,2.38-2.38-1.07-2.38-2.38,1.07-2.38,2.38-2.38Z"/>
        <path class="cls-1" d="m99.5,19.3h-48.22v2.43h48.22c10.06,0,18.24,8.33,18.24,18.39v19.96c0,10.06-8.18,18.39-18.24,18.39h-50.66v-10.54h-2.43v12.97h53.09c11.4,0,20.67-9.42,20.67-20.82v-19.96c0-11.4-9.27-20.82-20.67-20.82Z"/>
        <path class="cls-2" d="m106.39,54.97v4.26c0,4.69-3.61,8.71-8.31,8.71h-29.79v2.43h29.79c6.03,0,10.74-5.11,10.74-11.14v-1.82h8.92v-2.43h-11.35Z"/>
      </g>
    </g>
  </g>
</svg>
